<svg preserveAspectRatio="none" overflow="visible" style="display: block;" width="52.9412" height="40.5882" viewBox="0 0 52.9412 40.5882" fill="none" xmlns="http://www.w3.org/2000/svg">
<path id="&#226;&#128;&#157;" d="M0 11.7837C0 18.4611 3.92157 22.2581 9.15033 22.2581C10.0654 22.2581 10.8497 22.1271 11.5033 21.9962L12.4183 21.6034V22.9127C12.4183 28.1499 8.62745 32.0778 1.96078 32.0778V40.5882C15.6863 40.5882 24.183 32.2087 24.183 16.3662C24.183 5.23719 19.085 0 11.7647 0C5.09804 0 0 5.10626 0 11.7837ZM28.7582 11.7837C28.7582 18.4611 32.6797 22.2581 37.9085 22.2581C38.8235 22.2581 39.6078 22.1271 40.2614 21.9962L41.1765 21.6034V22.9127C41.1765 28.1499 37.3856 32.0778 30.719 32.0778V40.5882C44.4444 40.5882 52.9412 32.2087 52.9412 16.3662C52.9412 5.23719 47.8431 0 40.5229 0C33.8562 0 28.7582 5.10626 28.7582 11.7837Z" fill="#6A396A"/>
</svg>
